<mxfile host="Electron" modified="2023-11-29T09:40:14.340Z" agent="Mozilla/5.0 (Windows NT 10.0; Win64; x64) AppleWebKit/537.36 (KHTML, like Gecko) draw.io/22.0.3 Chrome/114.0.5735.289 Electron/25.8.4 Safari/537.36" etag="jonCknemQxo6NBRsCUVJ" version="22.0.3" type="device">
  <diagram name="Página-1" id="czPzywDgHJZYvkQHceFs">
    <mxGraphModel dx="1480" dy="934" grid="1" gridSize="10" guides="1" tooltips="1" connect="1" arrows="1" fold="1" page="1" pageScale="1" pageWidth="1169" pageHeight="827" math="0" shadow="0">
      <root>
        <mxCell id="0" />
        <mxCell id="1" parent="0" />
        <mxCell id="I-ZUVzrB_iPhdITW-T-J-1" value="Planta" style="whiteSpace=wrap;html=1;align=center;fillColor=#dae8fc;strokeColor=#6c8ebf;" vertex="1" parent="1">
          <mxGeometry x="550" y="160" width="100" height="40" as="geometry" />
        </mxCell>
        <mxCell id="I-ZUVzrB_iPhdITW-T-J-2" value="Especialidad" style="whiteSpace=wrap;html=1;align=center;fillColor=#dae8fc;strokeColor=#6c8ebf;" vertex="1" parent="1">
          <mxGeometry x="830" y="160" width="100" height="40" as="geometry" />
        </mxCell>
        <mxCell id="I-ZUVzrB_iPhdITW-T-J-3" value="Habitacion" style="whiteSpace=wrap;html=1;align=center;fillColor=#dae8fc;strokeColor=#6c8ebf;" vertex="1" parent="1">
          <mxGeometry x="550" y="320" width="100" height="40" as="geometry" />
        </mxCell>
        <mxCell id="I-ZUVzrB_iPhdITW-T-J-4" value="Paciente" style="whiteSpace=wrap;html=1;align=center;fillColor=#dae8fc;strokeColor=#6c8ebf;" vertex="1" parent="1">
          <mxGeometry x="550" y="480" width="100" height="40" as="geometry" />
        </mxCell>
        <mxCell id="I-ZUVzrB_iPhdITW-T-J-5" value="Médico" style="whiteSpace=wrap;html=1;align=center;fillColor=#dae8fc;strokeColor=#6c8ebf;" vertex="1" parent="1">
          <mxGeometry x="830" y="480" width="100" height="40" as="geometry" />
        </mxCell>
        <mxCell id="I-ZUVzrB_iPhdITW-T-J-6" value="Enfermero" style="whiteSpace=wrap;html=1;align=center;fillColor=#dae8fc;strokeColor=#6c8ebf;" vertex="1" parent="1">
          <mxGeometry x="270" y="480" width="100" height="40" as="geometry" />
        </mxCell>
        <mxCell id="I-ZUVzrB_iPhdITW-T-J-7" value="Tiene" style="shape=rhombus;perimeter=rhombusPerimeter;whiteSpace=wrap;html=1;align=center;fillColor=#e1d5e7;strokeColor=#9673a6;" vertex="1" parent="1">
          <mxGeometry x="680" y="150" width="120" height="60" as="geometry" />
        </mxCell>
        <mxCell id="I-ZUVzrB_iPhdITW-T-J-8" value="Contiene" style="shape=rhombus;perimeter=rhombusPerimeter;whiteSpace=wrap;html=1;align=center;fillColor=#e1d5e7;strokeColor=#9673a6;" vertex="1" parent="1">
          <mxGeometry x="540" y="230" width="120" height="60" as="geometry" />
        </mxCell>
        <mxCell id="I-ZUVzrB_iPhdITW-T-J-9" value="se encuentra" style="shape=rhombus;perimeter=rhombusPerimeter;whiteSpace=wrap;html=1;align=center;fillColor=#e1d5e7;strokeColor=#9673a6;" vertex="1" parent="1">
          <mxGeometry x="540" y="390" width="120" height="60" as="geometry" />
        </mxCell>
        <mxCell id="I-ZUVzrB_iPhdITW-T-J-10" value="n_camas" style="ellipse;whiteSpace=wrap;html=1;align=center;fillColor=#f5f5f5;strokeColor=#666666;fontColor=#333333;" vertex="1" parent="1">
          <mxGeometry x="690" y="320" width="100" height="40" as="geometry" />
        </mxCell>
        <mxCell id="I-ZUVzrB_iPhdITW-T-J-11" value="Diagnostica" style="shape=rhombus;perimeter=rhombusPerimeter;whiteSpace=wrap;html=1;align=center;fillColor=#e1d5e7;strokeColor=#9673a6;" vertex="1" parent="1">
          <mxGeometry x="680" y="470" width="120" height="60" as="geometry" />
        </mxCell>
        <mxCell id="I-ZUVzrB_iPhdITW-T-J-12" value="" style="endArrow=none;html=1;rounded=0;" edge="1" parent="1" source="I-ZUVzrB_iPhdITW-T-J-3" target="I-ZUVzrB_iPhdITW-T-J-10">
          <mxGeometry relative="1" as="geometry">
            <mxPoint x="730" y="410" as="sourcePoint" />
            <mxPoint x="890" y="410" as="targetPoint" />
          </mxGeometry>
        </mxCell>
        <mxCell id="I-ZUVzrB_iPhdITW-T-J-13" value="Cuida" style="shape=rhombus;perimeter=rhombusPerimeter;whiteSpace=wrap;html=1;align=center;fillColor=#e1d5e7;strokeColor=#9673a6;" vertex="1" parent="1">
          <mxGeometry x="400" y="470" width="120" height="60" as="geometry" />
        </mxCell>
        <mxCell id="I-ZUVzrB_iPhdITW-T-J-14" value="Trabaja" style="shape=rhombus;perimeter=rhombusPerimeter;whiteSpace=wrap;html=1;align=center;fillColor=#e1d5e7;strokeColor=#9673a6;" vertex="1" parent="1">
          <mxGeometry x="260" y="150" width="120" height="60" as="geometry" />
        </mxCell>
        <mxCell id="I-ZUVzrB_iPhdITW-T-J-17" value="Trata" style="shape=rhombus;perimeter=rhombusPerimeter;whiteSpace=wrap;html=1;align=center;fillColor=#e1d5e7;strokeColor=#9673a6;" vertex="1" parent="1">
          <mxGeometry x="680" y="550" width="120" height="60" as="geometry" />
        </mxCell>
        <mxCell id="I-ZUVzrB_iPhdITW-T-J-18" value="" style="endArrow=none;html=1;rounded=0;" edge="1" parent="1" source="I-ZUVzrB_iPhdITW-T-J-17" target="I-ZUVzrB_iPhdITW-T-J-5">
          <mxGeometry relative="1" as="geometry">
            <mxPoint x="730" y="410" as="sourcePoint" />
            <mxPoint x="890" y="410" as="targetPoint" />
            <Array as="points">
              <mxPoint x="880" y="580" />
            </Array>
          </mxGeometry>
        </mxCell>
        <mxCell id="I-ZUVzrB_iPhdITW-T-J-19" value="" style="endArrow=none;html=1;rounded=0;" edge="1" parent="1" source="I-ZUVzrB_iPhdITW-T-J-4" target="I-ZUVzrB_iPhdITW-T-J-17">
          <mxGeometry relative="1" as="geometry">
            <mxPoint x="730" y="410" as="sourcePoint" />
            <mxPoint x="890" y="410" as="targetPoint" />
            <Array as="points">
              <mxPoint x="600" y="580" />
            </Array>
          </mxGeometry>
        </mxCell>
        <mxCell id="I-ZUVzrB_iPhdITW-T-J-20" value="" style="endArrow=none;html=1;rounded=0;" edge="1" parent="1" source="I-ZUVzrB_iPhdITW-T-J-11" target="I-ZUVzrB_iPhdITW-T-J-5">
          <mxGeometry relative="1" as="geometry">
            <mxPoint x="730" y="410" as="sourcePoint" />
            <mxPoint x="890" y="410" as="targetPoint" />
          </mxGeometry>
        </mxCell>
        <mxCell id="I-ZUVzrB_iPhdITW-T-J-21" value="" style="endArrow=none;html=1;rounded=0;" edge="1" parent="1" source="I-ZUVzrB_iPhdITW-T-J-11" target="I-ZUVzrB_iPhdITW-T-J-4">
          <mxGeometry relative="1" as="geometry">
            <mxPoint x="730" y="410" as="sourcePoint" />
            <mxPoint x="890" y="410" as="targetPoint" />
          </mxGeometry>
        </mxCell>
        <mxCell id="I-ZUVzrB_iPhdITW-T-J-22" value="" style="endArrow=none;html=1;rounded=0;" edge="1" parent="1" source="I-ZUVzrB_iPhdITW-T-J-4" target="I-ZUVzrB_iPhdITW-T-J-13">
          <mxGeometry relative="1" as="geometry">
            <mxPoint x="730" y="410" as="sourcePoint" />
            <mxPoint x="890" y="410" as="targetPoint" />
          </mxGeometry>
        </mxCell>
        <mxCell id="I-ZUVzrB_iPhdITW-T-J-23" value="" style="endArrow=none;html=1;rounded=0;" edge="1" parent="1" source="I-ZUVzrB_iPhdITW-T-J-13" target="I-ZUVzrB_iPhdITW-T-J-6">
          <mxGeometry relative="1" as="geometry">
            <mxPoint x="730" y="410" as="sourcePoint" />
            <mxPoint x="890" y="410" as="targetPoint" />
          </mxGeometry>
        </mxCell>
        <mxCell id="I-ZUVzrB_iPhdITW-T-J-24" value="" style="endArrow=none;html=1;rounded=0;" edge="1" parent="1" source="I-ZUVzrB_iPhdITW-T-J-6" target="I-ZUVzrB_iPhdITW-T-J-14">
          <mxGeometry relative="1" as="geometry">
            <mxPoint x="730" y="410" as="sourcePoint" />
            <mxPoint x="890" y="410" as="targetPoint" />
          </mxGeometry>
        </mxCell>
        <mxCell id="I-ZUVzrB_iPhdITW-T-J-25" value="" style="endArrow=none;html=1;rounded=0;" edge="1" parent="1" source="I-ZUVzrB_iPhdITW-T-J-14" target="I-ZUVzrB_iPhdITW-T-J-1">
          <mxGeometry relative="1" as="geometry">
            <mxPoint x="730" y="410" as="sourcePoint" />
            <mxPoint x="890" y="410" as="targetPoint" />
          </mxGeometry>
        </mxCell>
        <mxCell id="I-ZUVzrB_iPhdITW-T-J-27" value="" style="endArrow=none;html=1;rounded=0;" edge="1" parent="1" source="I-ZUVzrB_iPhdITW-T-J-1" target="I-ZUVzrB_iPhdITW-T-J-7">
          <mxGeometry relative="1" as="geometry">
            <mxPoint x="730" y="410" as="sourcePoint" />
            <mxPoint x="890" y="410" as="targetPoint" />
          </mxGeometry>
        </mxCell>
        <mxCell id="I-ZUVzrB_iPhdITW-T-J-28" value="" style="endArrow=none;html=1;rounded=0;" edge="1" parent="1" source="I-ZUVzrB_iPhdITW-T-J-2" target="I-ZUVzrB_iPhdITW-T-J-7">
          <mxGeometry relative="1" as="geometry">
            <mxPoint x="730" y="410" as="sourcePoint" />
            <mxPoint x="890" y="410" as="targetPoint" />
          </mxGeometry>
        </mxCell>
        <mxCell id="I-ZUVzrB_iPhdITW-T-J-29" value="" style="endArrow=none;html=1;rounded=0;" edge="1" parent="1" source="I-ZUVzrB_iPhdITW-T-J-8" target="I-ZUVzrB_iPhdITW-T-J-1">
          <mxGeometry relative="1" as="geometry">
            <mxPoint x="730" y="410" as="sourcePoint" />
            <mxPoint x="890" y="410" as="targetPoint" />
          </mxGeometry>
        </mxCell>
        <mxCell id="I-ZUVzrB_iPhdITW-T-J-30" value="" style="endArrow=none;html=1;rounded=0;" edge="1" parent="1" source="I-ZUVzrB_iPhdITW-T-J-8" target="I-ZUVzrB_iPhdITW-T-J-3">
          <mxGeometry relative="1" as="geometry">
            <mxPoint x="730" y="410" as="sourcePoint" />
            <mxPoint x="890" y="410" as="targetPoint" />
          </mxGeometry>
        </mxCell>
        <mxCell id="I-ZUVzrB_iPhdITW-T-J-31" value="" style="endArrow=none;html=1;rounded=0;" edge="1" parent="1" source="I-ZUVzrB_iPhdITW-T-J-9" target="I-ZUVzrB_iPhdITW-T-J-3">
          <mxGeometry relative="1" as="geometry">
            <mxPoint x="730" y="410" as="sourcePoint" />
            <mxPoint x="890" y="410" as="targetPoint" />
          </mxGeometry>
        </mxCell>
        <mxCell id="I-ZUVzrB_iPhdITW-T-J-32" value="" style="endArrow=none;html=1;rounded=0;" edge="1" parent="1" source="I-ZUVzrB_iPhdITW-T-J-4" target="I-ZUVzrB_iPhdITW-T-J-9">
          <mxGeometry relative="1" as="geometry">
            <mxPoint x="730" y="410" as="sourcePoint" />
            <mxPoint x="890" y="410" as="targetPoint" />
          </mxGeometry>
        </mxCell>
        <mxCell id="I-ZUVzrB_iPhdITW-T-J-33" value="(1,n)" style="text;strokeColor=none;fillColor=none;spacingLeft=4;spacingRight=4;overflow=hidden;rotatable=0;points=[[0,0.5],[1,0.5]];portConstraint=eastwest;fontSize=12;whiteSpace=wrap;html=1;" vertex="1" parent="1">
          <mxGeometry x="510" y="150" width="40" height="30" as="geometry" />
        </mxCell>
        <mxCell id="I-ZUVzrB_iPhdITW-T-J-34" value="(1,n)" style="text;strokeColor=none;fillColor=none;spacingLeft=4;spacingRight=4;overflow=hidden;rotatable=0;points=[[0,0.5],[1,0.5]];portConstraint=eastwest;fontSize=12;whiteSpace=wrap;html=1;" vertex="1" parent="1">
          <mxGeometry x="280" y="450" width="40" height="30" as="geometry" />
        </mxCell>
        <mxCell id="I-ZUVzrB_iPhdITW-T-J-35" value="(1,1)" style="text;strokeColor=none;fillColor=none;spacingLeft=4;spacingRight=4;overflow=hidden;rotatable=0;points=[[0,0.5],[1,0.5]];portConstraint=eastwest;fontSize=12;whiteSpace=wrap;html=1;" vertex="1" parent="1">
          <mxGeometry x="790" y="150" width="40" height="30" as="geometry" />
        </mxCell>
        <mxCell id="I-ZUVzrB_iPhdITW-T-J-36" value="(1,1)" style="text;strokeColor=none;fillColor=none;spacingLeft=4;spacingRight=4;overflow=hidden;rotatable=0;points=[[0,0.5],[1,0.5]];portConstraint=eastwest;fontSize=12;whiteSpace=wrap;html=1;" vertex="1" parent="1">
          <mxGeometry x="650" y="150" width="40" height="30" as="geometry" />
        </mxCell>
        <mxCell id="I-ZUVzrB_iPhdITW-T-J-37" value="1:1" style="text;strokeColor=none;fillColor=none;spacingLeft=4;spacingRight=4;overflow=hidden;rotatable=0;points=[[0,0.5],[1,0.5]];portConstraint=eastwest;fontSize=12;whiteSpace=wrap;html=1;align=center;" vertex="1" parent="1">
          <mxGeometry x="720" y="120" width="40" height="30" as="geometry" />
        </mxCell>
        <mxCell id="I-ZUVzrB_iPhdITW-T-J-38" value="N:M" style="text;strokeColor=none;fillColor=none;spacingLeft=4;spacingRight=4;overflow=hidden;rotatable=0;points=[[0,0.5],[1,0.5]];portConstraint=eastwest;fontSize=12;whiteSpace=wrap;html=1;align=center;" vertex="1" parent="1">
          <mxGeometry x="300" y="120" width="40" height="30" as="geometry" />
        </mxCell>
        <mxCell id="I-ZUVzrB_iPhdITW-T-J-39" value="(1,1)" style="text;strokeColor=none;fillColor=none;spacingLeft=4;spacingRight=4;overflow=hidden;rotatable=0;points=[[0,0.5],[1,0.5]];portConstraint=eastwest;fontSize=12;whiteSpace=wrap;html=1;" vertex="1" parent="1">
          <mxGeometry x="600" y="200" width="40" height="30" as="geometry" />
        </mxCell>
        <mxCell id="I-ZUVzrB_iPhdITW-T-J-40" value="(1,n)" style="text;strokeColor=none;fillColor=none;spacingLeft=4;spacingRight=4;overflow=hidden;rotatable=0;points=[[0,0.5],[1,0.5]];portConstraint=eastwest;fontSize=12;whiteSpace=wrap;html=1;" vertex="1" parent="1">
          <mxGeometry x="600" y="290" width="40" height="30" as="geometry" />
        </mxCell>
        <mxCell id="I-ZUVzrB_iPhdITW-T-J-41" value="(0,n)" style="text;strokeColor=none;fillColor=none;spacingLeft=4;spacingRight=4;overflow=hidden;rotatable=0;points=[[0,0.5],[1,0.5]];portConstraint=eastwest;fontSize=12;whiteSpace=wrap;html=1;" vertex="1" parent="1">
          <mxGeometry x="600" y="450" width="40" height="30" as="geometry" />
        </mxCell>
        <mxCell id="I-ZUVzrB_iPhdITW-T-J-43" value="(1,1)" style="text;strokeColor=none;fillColor=none;spacingLeft=4;spacingRight=4;overflow=hidden;rotatable=0;points=[[0,0.5],[1,0.5]];portConstraint=eastwest;fontSize=12;whiteSpace=wrap;html=1;" vertex="1" parent="1">
          <mxGeometry x="600" y="360" width="40" height="30" as="geometry" />
        </mxCell>
        <mxCell id="I-ZUVzrB_iPhdITW-T-J-44" value="(1,1)" style="text;strokeColor=none;fillColor=none;spacingLeft=4;spacingRight=4;overflow=hidden;rotatable=0;points=[[0,0.5],[1,0.5]];portConstraint=eastwest;fontSize=12;whiteSpace=wrap;html=1;" vertex="1" parent="1">
          <mxGeometry x="790" y="470" width="40" height="30" as="geometry" />
        </mxCell>
        <mxCell id="I-ZUVzrB_iPhdITW-T-J-45" value="(1,n)" style="text;strokeColor=none;fillColor=none;spacingLeft=4;spacingRight=4;overflow=hidden;rotatable=0;points=[[0,0.5],[1,0.5]];portConstraint=eastwest;fontSize=12;whiteSpace=wrap;html=1;" vertex="1" parent="1">
          <mxGeometry x="650" y="470" width="40" height="30" as="geometry" />
        </mxCell>
        <mxCell id="I-ZUVzrB_iPhdITW-T-J-46" value="(1,n)" style="text;strokeColor=none;fillColor=none;spacingLeft=4;spacingRight=4;overflow=hidden;rotatable=0;points=[[0,0.5],[1,0.5]];portConstraint=eastwest;fontSize=12;whiteSpace=wrap;html=1;" vertex="1" parent="1">
          <mxGeometry x="600" y="520" width="40" height="30" as="geometry" />
        </mxCell>
        <mxCell id="I-ZUVzrB_iPhdITW-T-J-48" value="(1,1)" style="text;strokeColor=none;fillColor=none;spacingLeft=4;spacingRight=4;overflow=hidden;rotatable=0;points=[[0,0.5],[1,0.5]];portConstraint=eastwest;fontSize=12;whiteSpace=wrap;html=1;" vertex="1" parent="1">
          <mxGeometry x="840" y="520" width="40" height="30" as="geometry" />
        </mxCell>
        <mxCell id="I-ZUVzrB_iPhdITW-T-J-49" value="1:N" style="text;strokeColor=none;fillColor=none;spacingLeft=4;spacingRight=4;overflow=hidden;rotatable=0;points=[[0,0.5],[1,0.5]];portConstraint=eastwest;fontSize=12;whiteSpace=wrap;html=1;align=center;" vertex="1" parent="1">
          <mxGeometry x="720" y="440" width="40" height="30" as="geometry" />
        </mxCell>
        <mxCell id="I-ZUVzrB_iPhdITW-T-J-50" value="1:N" style="text;strokeColor=none;fillColor=none;spacingLeft=4;spacingRight=4;overflow=hidden;rotatable=0;points=[[0,0.5],[1,0.5]];portConstraint=eastwest;fontSize=12;whiteSpace=wrap;html=1;align=center;" vertex="1" parent="1">
          <mxGeometry x="720" y="610" width="40" height="30" as="geometry" />
        </mxCell>
        <mxCell id="I-ZUVzrB_iPhdITW-T-J-51" value="(1,n)" style="text;strokeColor=none;fillColor=none;spacingLeft=4;spacingRight=4;overflow=hidden;rotatable=0;points=[[0,0.5],[1,0.5]];portConstraint=eastwest;fontSize=12;whiteSpace=wrap;html=1;" vertex="1" parent="1">
          <mxGeometry x="510" y="470" width="40" height="30" as="geometry" />
        </mxCell>
        <mxCell id="I-ZUVzrB_iPhdITW-T-J-52" value="(1,n)" style="text;strokeColor=none;fillColor=none;spacingLeft=4;spacingRight=4;overflow=hidden;rotatable=0;points=[[0,0.5],[1,0.5]];portConstraint=eastwest;fontSize=12;whiteSpace=wrap;html=1;" vertex="1" parent="1">
          <mxGeometry x="370" y="470" width="40" height="30" as="geometry" />
        </mxCell>
        <mxCell id="I-ZUVzrB_iPhdITW-T-J-53" value="N:M" style="text;strokeColor=none;fillColor=none;spacingLeft=4;spacingRight=4;overflow=hidden;rotatable=0;points=[[0,0.5],[1,0.5]];portConstraint=eastwest;fontSize=12;whiteSpace=wrap;html=1;align=center;" vertex="1" parent="1">
          <mxGeometry x="440" y="440" width="40" height="30" as="geometry" />
        </mxCell>
        <mxCell id="I-ZUVzrB_iPhdITW-T-J-54" value="1:N" style="text;strokeColor=none;fillColor=none;spacingLeft=4;spacingRight=4;overflow=hidden;rotatable=0;points=[[0,0.5],[1,0.5]];portConstraint=eastwest;fontSize=12;whiteSpace=wrap;html=1;align=center;" vertex="1" parent="1">
          <mxGeometry x="660" y="405" width="40" height="30" as="geometry" />
        </mxCell>
        <mxCell id="I-ZUVzrB_iPhdITW-T-J-55" value="1:N" style="text;strokeColor=none;fillColor=none;spacingLeft=4;spacingRight=4;overflow=hidden;rotatable=0;points=[[0,0.5],[1,0.5]];portConstraint=eastwest;fontSize=12;whiteSpace=wrap;html=1;align=center;" vertex="1" parent="1">
          <mxGeometry x="660" y="245" width="40" height="30" as="geometry" />
        </mxCell>
        <mxCell id="I-ZUVzrB_iPhdITW-T-J-56" value="camas_libres" style="ellipse;whiteSpace=wrap;html=1;align=center;fillColor=#f5f5f5;fontColor=#333333;strokeColor=#666666;" vertex="1" parent="1">
          <mxGeometry x="440" y="80" width="100" height="40" as="geometry" />
        </mxCell>
        <mxCell id="I-ZUVzrB_iPhdITW-T-J-58" value="" style="endArrow=none;html=1;rounded=0;" edge="1" parent="1" source="I-ZUVzrB_iPhdITW-T-J-1" target="I-ZUVzrB_iPhdITW-T-J-56">
          <mxGeometry relative="1" as="geometry">
            <mxPoint x="600" y="300" as="sourcePoint" />
            <mxPoint x="760" y="300" as="targetPoint" />
          </mxGeometry>
        </mxCell>
        <mxCell id="I-ZUVzrB_iPhdITW-T-J-59" value="cod_planta" style="ellipse;whiteSpace=wrap;html=1;align=center;fontStyle=4;fillColor=#f5f5f5;fontColor=#333333;strokeColor=#666666;" vertex="1" parent="1">
          <mxGeometry x="550" y="80" width="100" height="40" as="geometry" />
        </mxCell>
        <mxCell id="I-ZUVzrB_iPhdITW-T-J-60" value="" style="endArrow=none;html=1;rounded=0;" edge="1" parent="1" source="I-ZUVzrB_iPhdITW-T-J-1" target="I-ZUVzrB_iPhdITW-T-J-59">
          <mxGeometry relative="1" as="geometry">
            <mxPoint x="600" y="300" as="sourcePoint" />
            <mxPoint x="760" y="300" as="targetPoint" />
          </mxGeometry>
        </mxCell>
        <mxCell id="I-ZUVzrB_iPhdITW-T-J-61" value="n_colegiado" style="ellipse;whiteSpace=wrap;html=1;align=center;fontStyle=4;fillColor=#f5f5f5;strokeColor=#666666;fontColor=#333333;" vertex="1" parent="1">
          <mxGeometry x="830" y="420" width="100" height="40" as="geometry" />
        </mxCell>
        <mxCell id="I-ZUVzrB_iPhdITW-T-J-62" value="Nombre" style="ellipse;whiteSpace=wrap;html=1;align=center;fillColor=#f5f5f5;fontColor=#333333;strokeColor=#666666;" vertex="1" parent="1">
          <mxGeometry x="950" y="480" width="100" height="40" as="geometry" />
        </mxCell>
        <mxCell id="I-ZUVzrB_iPhdITW-T-J-64" value="NSS" style="ellipse;whiteSpace=wrap;html=1;align=center;fontStyle=4;fillColor=#f5f5f5;fontColor=#333333;strokeColor=#666666;" vertex="1" parent="1">
          <mxGeometry x="410" y="540" width="100" height="40" as="geometry" />
        </mxCell>
        <mxCell id="I-ZUVzrB_iPhdITW-T-J-65" value="Nombre" style="ellipse;whiteSpace=wrap;html=1;align=center;fillColor=#f5f5f5;fontColor=#333333;strokeColor=#666666;" vertex="1" parent="1">
          <mxGeometry x="420" y="590" width="100" height="40" as="geometry" />
        </mxCell>
        <mxCell id="I-ZUVzrB_iPhdITW-T-J-66" value="Direccion" style="ellipse;whiteSpace=wrap;html=1;align=center;fillColor=#f5f5f5;fontColor=#333333;strokeColor=#666666;" vertex="1" parent="1">
          <mxGeometry x="440" y="640" width="100" height="40" as="geometry" />
        </mxCell>
        <mxCell id="I-ZUVzrB_iPhdITW-T-J-67" style="edgeStyle=orthogonalEdgeStyle;rounded=0;orthogonalLoop=1;jettySize=auto;html=1;exitX=0.5;exitY=1;exitDx=0;exitDy=0;" edge="1" parent="1" source="I-ZUVzrB_iPhdITW-T-J-66" target="I-ZUVzrB_iPhdITW-T-J-66">
          <mxGeometry relative="1" as="geometry" />
        </mxCell>
        <mxCell id="I-ZUVzrB_iPhdITW-T-J-69" value="DNI" style="ellipse;whiteSpace=wrap;html=1;align=center;fontStyle=4;fillColor=#f5f5f5;fontColor=#333333;strokeColor=#666666;" vertex="1" parent="1">
          <mxGeometry x="490" y="680" width="100" height="40" as="geometry" />
        </mxCell>
        <mxCell id="I-ZUVzrB_iPhdITW-T-J-70" value="" style="endArrow=none;html=1;rounded=0;" edge="1" parent="1" source="I-ZUVzrB_iPhdITW-T-J-64" target="I-ZUVzrB_iPhdITW-T-J-4">
          <mxGeometry relative="1" as="geometry">
            <mxPoint x="530" y="560" as="sourcePoint" />
            <mxPoint x="690" y="560" as="targetPoint" />
          </mxGeometry>
        </mxCell>
        <mxCell id="I-ZUVzrB_iPhdITW-T-J-71" value="" style="endArrow=none;html=1;rounded=0;" edge="1" parent="1" source="I-ZUVzrB_iPhdITW-T-J-65" target="I-ZUVzrB_iPhdITW-T-J-4">
          <mxGeometry relative="1" as="geometry">
            <mxPoint x="530" y="560" as="sourcePoint" />
            <mxPoint x="690" y="560" as="targetPoint" />
          </mxGeometry>
        </mxCell>
        <mxCell id="I-ZUVzrB_iPhdITW-T-J-72" value="" style="endArrow=none;html=1;rounded=0;" edge="1" parent="1" source="I-ZUVzrB_iPhdITW-T-J-66" target="I-ZUVzrB_iPhdITW-T-J-4">
          <mxGeometry relative="1" as="geometry">
            <mxPoint x="530" y="560" as="sourcePoint" />
            <mxPoint x="690" y="560" as="targetPoint" />
          </mxGeometry>
        </mxCell>
        <mxCell id="I-ZUVzrB_iPhdITW-T-J-73" value="" style="endArrow=none;html=1;rounded=0;" edge="1" parent="1" source="I-ZUVzrB_iPhdITW-T-J-69" target="I-ZUVzrB_iPhdITW-T-J-4">
          <mxGeometry relative="1" as="geometry">
            <mxPoint x="530" y="560" as="sourcePoint" />
            <mxPoint x="690" y="560" as="targetPoint" />
          </mxGeometry>
        </mxCell>
        <mxCell id="I-ZUVzrB_iPhdITW-T-J-74" value="Nombre" style="ellipse;whiteSpace=wrap;html=1;align=center;fillColor=#f5f5f5;fontColor=#333333;strokeColor=#666666;" vertex="1" parent="1">
          <mxGeometry x="150" y="480" width="100" height="40" as="geometry" />
        </mxCell>
        <mxCell id="I-ZUVzrB_iPhdITW-T-J-75" value="cod_enf" style="ellipse;whiteSpace=wrap;html=1;align=center;fontStyle=4;fillColor=#f5f5f5;fontColor=#333333;strokeColor=#666666;" vertex="1" parent="1">
          <mxGeometry x="270" y="540" width="100" height="40" as="geometry" />
        </mxCell>
        <mxCell id="I-ZUVzrB_iPhdITW-T-J-76" value="" style="endArrow=none;html=1;rounded=0;" edge="1" parent="1" source="I-ZUVzrB_iPhdITW-T-J-6" target="I-ZUVzrB_iPhdITW-T-J-75">
          <mxGeometry relative="1" as="geometry">
            <mxPoint x="410" y="470" as="sourcePoint" />
            <mxPoint x="570" y="470" as="targetPoint" />
          </mxGeometry>
        </mxCell>
        <mxCell id="I-ZUVzrB_iPhdITW-T-J-77" value="" style="endArrow=none;html=1;rounded=0;" edge="1" parent="1" source="I-ZUVzrB_iPhdITW-T-J-74" target="I-ZUVzrB_iPhdITW-T-J-6">
          <mxGeometry relative="1" as="geometry">
            <mxPoint x="410" y="470" as="sourcePoint" />
            <mxPoint x="570" y="470" as="targetPoint" />
          </mxGeometry>
        </mxCell>
        <mxCell id="I-ZUVzrB_iPhdITW-T-J-78" value="" style="endArrow=none;html=1;rounded=0;" edge="1" parent="1" source="I-ZUVzrB_iPhdITW-T-J-5" target="I-ZUVzrB_iPhdITW-T-J-61">
          <mxGeometry relative="1" as="geometry">
            <mxPoint x="440" y="330" as="sourcePoint" />
            <mxPoint x="600" y="330" as="targetPoint" />
          </mxGeometry>
        </mxCell>
        <mxCell id="I-ZUVzrB_iPhdITW-T-J-79" value="" style="endArrow=none;html=1;rounded=0;" edge="1" parent="1" source="I-ZUVzrB_iPhdITW-T-J-5" target="I-ZUVzrB_iPhdITW-T-J-62">
          <mxGeometry relative="1" as="geometry">
            <mxPoint x="440" y="330" as="sourcePoint" />
            <mxPoint x="600" y="330" as="targetPoint" />
          </mxGeometry>
        </mxCell>
      </root>
    </mxGraphModel>
  </diagram>
</mxfile>
